<svg width="100" height="100" viewBox="0 0 100 100" xmlns="http://www.w3.org/2000/svg">
  <!-- Octocat body -->
  <circle cx="30" cy="50" r="20" fill="#4facfe" opacity="0.9"/>
  
  <!-- Octocat eyes -->
  <circle cx="25" cy="45" r="3" fill="white"/>
  <circle cx="35" cy="45" r="3" fill="white"/>
  <circle cx="25" cy="45" r="1.5" fill="#1a1a2e"/>
  <circle cx="35" cy="45" r="1.5" fill="#1a1a2e"/>
  
  <!-- Octocat tentacles -->
  <path d="M15 35 Q10 30 12 25" stroke="#4facfe" stroke-width="3" fill="none" stroke-linecap="round"/>
  <path d="M45 35 Q50 30 48 25" stroke="#4facfe" stroke-width="3" fill="none" stroke-linecap="round"/>
  <path d="M15 65 Q10 70 12 75" stroke="#4facfe" stroke-width="3" fill="none" stroke-linecap="round"/>
  <path d="M45 65 Q50 70 48 75" stroke="#4facfe" stroke-width="3" fill="none" stroke-linecap="round"/>
  
  <!-- Mirror line -->
  <line x1="60" y1="20" x2="60" y2="80" stroke="rgba(255,255,255,0.6)" stroke-width="2"/>
  <line x1="58" y1="20" x2="58" y2="80" stroke="rgba(255,255,255,0.3)" stroke-width="1"/>
  
  <!-- Mirror reflection -->
  <g transform="scale(-1,1) translate(-120,0)" opacity="0.6">
    <circle cx="30" cy="50" r="20" fill="#00f2fe" opacity="0.7"/>
    <circle cx="25" cy="45" r="3" fill="rgba(255,255,255,0.8)"/>
    <circle cx="35" cy="45" r="3" fill="rgba(255,255,255,0.8)"/>
    <circle cx="25" cy="45" r="1.5" fill="rgba(26,26,46,0.8)"/>
    <circle cx="35" cy="45" r="1.5" fill="rgba(26,26,46,0.8)"/>
  </g>
  
  <!-- Mirror frame -->
  <rect x="57" y="18" width="6" height="64" fill="rgba(255,255,255,0.2)" rx="3"/>
  <circle cx="60" cy="15" r="3" fill="rgba(255,255,255,0.3)"/>
  <circle cx="60" cy="85" r="3" fill="rgba(255,255,255,0.3)"/>
  
  <!-- Sparkles -->
  <circle cx="40" cy="30" r="1" fill="white" opacity="0.8"/>
  <circle cx="75" cy="40" r="1.5" fill="#4facfe" opacity="0.6"/>
  <circle cx="80" cy="60" r="1" fill="#00f2fe" opacity="0.7"/>
</svg>
